<svg width="2771" height="2709" viewBox="0 0 2771 2709" fill="none" xmlns="http://www.w3.org/2000/svg">
<g filter="url(#filter0_d_307_309)">
<path d="M1401.04 2563.68C1401.04 2487.85 1401.04 2412.01 1401.04 2336.17C1401.04 2253.38 1363.59 2197.62 1332.07 2133.94C1279.33 2027.38 1123.44 2018.72 1044.14 2054.94C965.553 2090.83 871.017 2123.67 798.899 2177.39C680.615 2265.49 549.807 2168.97 433.232 2137.1C350.276 2114.41 265.474 2089.33 202.775 1998.85C142.777 1912.27 78.226 1823.61 71.3974 1695.5C66.9437 1611.95 59.3682 1531.27 60.9967 1446.66C62.5122 1367.93 160.91 1269.67 209.344 1254.7C237.939 1245.85 263.653 1221.06 292.002 1213.62C306.428 1209.83 316.073 1232.53 307.329 1206.51C278.748 1121.44 223.943 1046.62 203.87 958.457C176.471 838.121 169.383 703.116 169.383 576.9C169.383 553.988 164.785 518.845 173.762 498.692C231.494 369.092 340.152 266.837 444.18 259.331C509.895 254.589 574.042 245.901 640.152 245.901C678.305 245.901 719.086 240.273 756.202 255.381C784.789 267.017 862.382 301.154 876.631 342.278C908.007 432.836 1109.51 185.132 1161.28 155.054C1244.21 106.87 1329.45 92.5086 1416.92 74.4767C1483.04 60.8464 1545.25 28.5772 1613.44 21.5485C1672.88 15.4209 1725.9 36.0462 1783.13 54.7274C1901.6 93.3981 1971.26 243.757 2061.76 351.757C2098.9 396.073 2147.4 343.435 2183.83 317.789C2232.77 283.342 2285.21 267.854 2337.11 245.901C2503.08 175.697 2747.98 404.173 2750.95 661.427C2751.68 724.683 2745.41 842.034 2702.23 877.09C2660.47 910.983 2607.53 918.169 2563.73 949.767C2545.41 962.988 2528.92 988.071 2510.09 997.956C2499.77 1003.37 2593.83 1057.9 2611.91 1076.95C2692.11 1161.51 2785.95 1403.46 2724.12 1542.25C2649.09 1710.68 2552.51 1838.34 2411.56 1863.77C2369.92 1871.28 2326.27 1886.37 2284.56 1889.05C2247.96 1891.39 2210.43 1966.44 2176.72 1993.32C2097.93 2056.16 2007.77 2078 1925.46 2129.2C1868.41 2164.69 1825.09 2210.29 1775.47 2261.91C1738.22 2300.67 1691.23 2323.67 1649.57 2350.39C1618.7 2370.19 1571.06 2380.4 1544.47 2409.64C1511.17 2446.25 1491.73 2507.87 1460.16 2546.3C1444.63 2565.22 1407.09 2622.81 1401.04 2649" stroke="white" stroke-width="40" stroke-linecap="round"/>
</g>
<defs>
<filter id="filter0_d_307_309" x="0.772461" y="0.459961" width="2770.23" height="2708.54" filterUnits="userSpaceOnUse" color-interpolation-filters="sRGB">
<feFlood flood-opacity="0" result="BackgroundImageFix"/>
<feColorMatrix in="SourceAlpha" type="matrix" values="0 0 0 0 0 0 0 0 0 0 0 0 0 0 0 0 0 0 127 0" result="hardAlpha"/>
<feOffset dx="-40" dy="40"/>
<feComposite in2="hardAlpha" operator="out"/>
<feColorMatrix type="matrix" values="0 0 0 0 0.988235 0 0 0 0 0.776471 0 0 0 0 0.027451 0 0 0 1 0"/>
<feBlend mode="normal" in2="BackgroundImageFix" result="effect1_dropShadow_307_309"/>
<feBlend mode="normal" in="SourceGraphic" in2="effect1_dropShadow_307_309" result="shape"/>
</filter>
</defs>
</svg>
