<svg width="2772" height="2178" viewBox="0 0 2772 2178" fill="none" xmlns="http://www.w3.org/2000/svg">
<g filter="url(#filter0_d_307_309)">
<path d="M1401.23 2105.97C1401.23 2045.45 1401.23 1928.89 1401.23 1868.38C1401.23 1802.31 1363.77 1757.82 1332.25 1707C1279.51 1621.98 1123.62 1615.07 1044.32 1643.96C965.735 1672.6 871.2 1698.81 799.081 1741.67C680.797 1811.97 549.99 1734.96 433.415 1709.52C350.458 1691.42 265.656 1671.41 202.957 1599.21C142.959 1530.12 78.4084 1459.37 71.5798 1357.15C67.126 1290.47 59.5506 1226.1 61.1791 1158.58C62.6946 1095.76 161.092 1017.36 209.526 1005.4C238.121 998.348 263.836 978.561 292.184 972.625C306.611 969.605 316.255 987.719 307.512 966.952C278.931 899.071 224.125 839.369 204.052 769.017C176.654 672.994 169.565 565.265 169.565 464.551C169.565 446.268 164.968 418.225 173.945 402.144C231.677 298.729 340.334 217.133 444.363 211.143C510.077 207.36 574.224 200.427 640.334 200.427C678.488 200.427 719.268 195.937 756.384 207.992C784.972 217.277 862.565 244.517 876.813 277.332C908.189 349.594 1109.69 151.936 1161.46 127.935C1244.4 89.4865 1329.64 78.0266 1417.1 63.6379C1483.22 52.7614 1545.43 27.0119 1613.62 21.4034C1673.07 16.5137 1726.09 32.9719 1783.32 47.8787C1901.79 78.7363 1971.44 198.716 2061.95 284.896C2099.08 320.259 2147.59 278.255 2184.02 257.791C2232.95 230.304 2285.39 217.945 2337.29 200.427C2503.26 144.408 2748.16 326.722 2751.13 532C2751.86 582.475 2745.59 676.116 2702.41 704.09C2660.66 731.135 2607.71 736.869 2563.92 762.083C2545.59 772.633 2529.11 792.648 2510.27 800.535C2499.95 804.855 2594.01 848.365 2612.09 863.572C2692.3 931.043 2786.13 1124.11 2724.31 1234.86C2649.28 1369.26 2552.69 1471.13 2411.74 1491.42C2370.11 1497.41 2326.45 1509.45 2284.74 1511.59C2248.15 1513.46 2210.61 1573.34 2176.9 1594.8C2098.11 1644.94 2007.95 1662.37 1925.64 1703.22C1868.59 1731.54 1825.27 1767.93 1775.65 1809.12C1738.4 1840.05 1691.41 1858.4 1649.75 1879.72C1618.89 1895.52 1571.24 1903.66 1544.65 1927C1511.35 1956.21 1491.91 2005.39 1460.35 2036.05C1444.81 2051.15 1407.28 2097.1 1401.23 2118" stroke="white" stroke-width="40" stroke-linecap="round"/>
</g>
<defs>
<filter id="filter0_d_307_309" x="0.955811" y="0.533203" width="2770.23" height="2177.47" filterUnits="userSpaceOnUse" color-interpolation-filters="sRGB">
<feFlood flood-opacity="0" result="BackgroundImageFix"/>
<feColorMatrix in="SourceAlpha" type="matrix" values="0 0 0 0 0 0 0 0 0 0 0 0 0 0 0 0 0 0 127 0" result="hardAlpha"/>
<feOffset dx="-40" dy="40"/>
<feComposite in2="hardAlpha" operator="out"/>
<feColorMatrix type="matrix" values="0 0 0 0 0.988235 0 0 0 0 0.776471 0 0 0 0 0.027451 0 0 0 1 0"/>
<feBlend mode="normal" in2="BackgroundImageFix" result="effect1_dropShadow_307_309"/>
<feBlend mode="normal" in="SourceGraphic" in2="effect1_dropShadow_307_309" result="shape"/>
</filter>
</defs>
</svg>
