<svg width="576" height="251" viewBox="0 0 576 251" fill="none" xmlns="http://www.w3.org/2000/svg">
<path d="M98.6262 58.5562C94.0261 58.5562 89.1417 58.2848 84.645 59.2229C81.1704 59.9477 79.1354 62.422 75.8567 63.334C66.5819 65.9138 58.8922 72.9269 51.9554 78.334C38.8634 88.5391 24.5454 99.8466 15.5376 113.001C9.65309 121.594 8.84778 129.28 12.4084 148.056C12.4084 155.056 12.4911 161.509 19.5323 171.056C22.156 174.614 34.9216 183.843 37.7744 187.334C43.9724 194.919 58.9842 196.789 68.733 199.501C76.7961 201.743 85.0009 203.054 92.9006 205.778C102.964 209.249 112.431 214.163 122.661 217.223C132.262 220.095 141.604 223.969 151.489 226.112C163.543 228.725 175.66 227.821 187.84 229.223C209.36 231.7 231.817 233.67 252.953 234.445C270.465 235.087 270.478 235.775 287.973 236.778C300.968 237.524 330.648 239.794 343.631 240.223C353.411 240.546 354.886 240.362 364.67 240.223C368.738 240.165 364.257 239.028 384.244 236.778C390.435 236.778 406.985 234.653 411.407 234.445C420.515 234.016 395.265 236.011 429.516 232.334C441.503 228.827 454.807 226.641 465.934 221.556C479.087 215.546 493.431 208.451 505.348 200.334C511.705 196.004 516.182 190.129 522.725 185.89C525.291 184.226 527.595 183.186 529.516 181.001C545.863 162.399 566 157.056 566 118.001C555.215 97.5563 554.116 90.584 531.646 79.334C525.759 76.3864 515.888 69.6367 510.275 66.5563C502.028 62.0305 499.332 62.6558 492.099 57.2784C481.517 49.4116 465.359 47.4945 452.951 42.0007C440.031 36.2799 423.794 36.1051 409.543 33.7784C405.081 33.05 401.171 32.3954 397.026 30.9451C384.091 26.4184 368.799 26.1861 355.149 24.0562C334.706 20.8664 315.882 25.6188 294.697 20.5562C287.373 18.8062 284.477 17.3062 276.288 17.3062C261.109 14.8061 254.118 10.5562 233.146 10.5562C197.194 14.3062 213.196 11.3965 195.397 13.3062C186.443 14.2668 183.113 14.8062 171.395 20.5562C165.226 23.5836 160.943 23.8617 154.352 27.1118C138.473 37.1118 130.084 34.8062 124.092 40.0562" stroke="white" stroke-width="20" stroke-linecap="round"/>
</svg>
