<svg width="119" height="110" viewBox="0 0 119 110" fill="none" xmlns="http://www.w3.org/2000/svg">
<g filter="url(#filter0_dd_228_461)">
<rect x="1.01" y="8.01" width="9.98" height="9.98" fill="#F54F9F" stroke="white" stroke-width="0.02"/>
<rect x="1.01" y="18.01" width="9.98" height="9.98" fill="#F54F9F" stroke="white" stroke-width="0.02"/>
<rect x="11.01" y="18.01" width="9.98" height="9.98" fill="#F59AC6" stroke="white" stroke-width="0.02"/>
<rect x="11.01" y="28.01" width="9.98" height="9.98" fill="#F59AC6" stroke="white" stroke-width="0.02"/>
<rect x="11.01" y="38.01" width="9.98" height="9.98" fill="#F59AC6" stroke="white" stroke-width="0.02"/>
<rect x="11.01" y="48.01" width="9.98" height="9.98" fill="#F59AC6" stroke="white" stroke-width="0.02"/>
<rect x="11.01" y="58.01" width="9.98" height="9.98" fill="#F59AC6" stroke="white" stroke-width="0.02"/>
<rect x="11.01" y="68.01" width="9.98" height="9.98" fill="#F59AC6" stroke="white" stroke-width="0.02"/>
<rect x="11.01" y="78.01" width="9.98" height="9.98" fill="#F59AC6" stroke="white" stroke-width="0.02"/>
<rect x="11.01" y="88.01" width="9.98" height="9.98" fill="#F59AC6" stroke="white" stroke-width="0.02"/>
<rect x="21.01" y="88.01" width="9.98" height="9.98" fill="#F59AC6" stroke="white" stroke-width="0.02"/>
<rect x="31.01" y="88.01" width="9.98" height="9.98" fill="#F59AC6" stroke="white" stroke-width="0.02"/>
<rect x="41.01" y="88.01" width="9.98" height="9.98" fill="#F59AC6" stroke="white" stroke-width="0.02"/>
<rect x="51.01" y="88.01" width="9.98" height="9.98" fill="#F59AC6" stroke="white" stroke-width="0.02"/>
<rect x="61.01" y="88.01" width="9.98" height="9.98" fill="#F59AC6" stroke="white" stroke-width="0.02"/>
<rect x="71.01" y="88.01" width="9.98" height="9.98" fill="#F59AC6" stroke="white" stroke-width="0.02"/>
<rect x="81.01" y="88.01" width="9.98" height="9.98" fill="#F59AC6" stroke="white" stroke-width="0.02"/>
<rect x="91.01" y="88.01" width="9.98" height="9.98" fill="#F59AC6" stroke="white" stroke-width="0.02"/>
<rect x="21.01" y="18.01" width="9.98" height="9.98" fill="#F59AC6" stroke="white" stroke-width="0.02"/>
<rect x="21.01" y="28.01" width="9.98" height="9.98" fill="#FFD1E7" stroke="white" stroke-width="0.02"/>
<rect x="11.01" y="18.01" width="9.98" height="9.98" fill="white" stroke="white" stroke-width="0.02"/>
<rect x="21.01" y="38.01" width="9.98" height="9.98" fill="#FFD1E7" stroke="white" stroke-width="0.02"/>
<rect x="31.01" y="38.01" width="9.98" height="9.98" fill="#FFD1E7" stroke="white" stroke-width="0.02"/>
<rect x="21.01" y="28.01" width="4.98" height="4.98" fill="white" stroke="white" stroke-width="0.02"/>
<rect x="41.01" y="38.01" width="9.98" height="9.98" fill="#FFD1E7" stroke="white" stroke-width="0.02"/>
<rect x="41.01" y="43.01" width="9.98" height="4.98" fill="#FB057B" stroke="white" stroke-width="0.02"/>
<rect x="51.01" y="38.01" width="9.98" height="9.98" fill="#FFD1E7" stroke="white" stroke-width="0.02"/>
<rect x="51.01" y="43.01" width="9.98" height="4.98" fill="#FB057B" stroke="white" stroke-width="0.02"/>
<rect x="61.01" y="38.01" width="9.98" height="9.98" fill="#FFD1E7" stroke="white" stroke-width="0.02"/>
<rect x="61.01" y="43.01" width="9.98" height="4.98" fill="#FB057B" stroke="white" stroke-width="0.02"/>
<rect x="71.01" y="38.01" width="9.98" height="9.98" fill="#FFD1E7" stroke="white" stroke-width="0.02"/>
<rect x="21.01" y="48.01" width="9.98" height="9.98" fill="#FFD1E7" stroke="white" stroke-width="0.02"/>
<rect x="31.01" y="48.01" width="9.98" height="9.98" fill="#FFD1E7" stroke="white" stroke-width="0.02"/>
<rect x="41.01" y="48.01" width="9.98" height="9.98" fill="#FFD1E7" stroke="white" stroke-width="0.02"/>
<rect x="51.01" y="48.01" width="9.98" height="9.98" fill="#FFD1E7" stroke="white" stroke-width="0.02"/>
<rect x="61.01" y="48.01" width="9.98" height="9.98" fill="#FFD1E7" stroke="white" stroke-width="0.02"/>
<rect x="71.01" y="48.01" width="9.98" height="9.98" fill="#FFD1E7" stroke="white" stroke-width="0.02"/>
<rect x="21.01" y="58.01" width="9.98" height="9.98" fill="#FFD1E7" stroke="white" stroke-width="0.02"/>
<rect x="31.01" y="58.01" width="9.98" height="9.98" fill="#FFD1E7" stroke="white" stroke-width="0.02"/>
<rect x="41.01" y="58.01" width="9.98" height="9.98" fill="#FFD1E7" stroke="white" stroke-width="0.02"/>
<rect x="41.01" y="59.26" width="9.98" height="3.73" fill="#FB057B" stroke="white" stroke-width="0.02"/>
<rect x="51.01" y="58.01" width="9.98" height="9.98" fill="#FFD1E7" stroke="white" stroke-width="0.02"/>
<rect x="51.01" y="59.26" width="9.98" height="3.73" fill="#FB057B" stroke="white" stroke-width="0.02"/>
<rect x="61.01" y="58.01" width="9.98" height="9.98" fill="#FFD1E7" stroke="white" stroke-width="0.02"/>
<rect x="61.01" y="59.26" width="9.98" height="3.73" fill="#FB057B" stroke="white" stroke-width="0.02"/>
<rect x="71.01" y="58.01" width="9.98" height="9.98" fill="#FFD1E7" stroke="white" stroke-width="0.02"/>
<rect x="21.01" y="68.01" width="9.98" height="9.98" fill="#FFD1E7" stroke="white" stroke-width="0.02"/>
<rect x="31.01" y="68.01" width="9.98" height="9.98" fill="#FFD1E7" stroke="white" stroke-width="0.02"/>
<rect x="41.01" y="68.01" width="9.98" height="9.98" fill="#FFD1E7" stroke="white" stroke-width="0.02"/>
<rect x="41.01" y="73.01" width="9.98" height="4.98" fill="#FB057B" stroke="white" stroke-width="0.02"/>
<rect x="51.01" y="68.01" width="9.98" height="9.98" fill="#FFD1E7" stroke="white" stroke-width="0.02"/>
<rect x="51.01" y="73.01" width="9.98" height="4.98" fill="#FB057B" stroke="white" stroke-width="0.02"/>
<rect x="61.01" y="68.01" width="9.98" height="9.98" fill="#FFD1E7" stroke="white" stroke-width="0.02"/>
<rect x="61.01" y="73.01" width="9.98" height="4.98" fill="#FB057B" stroke="white" stroke-width="0.02"/>
<rect x="71.01" y="68.01" width="9.98" height="9.98" fill="#FFD1E7" stroke="white" stroke-width="0.02"/>
<rect x="21.01" y="78.01" width="9.98" height="9.98" fill="#FFD1E7" stroke="white" stroke-width="0.02"/>
<rect x="31.01" y="78.01" width="9.98" height="9.98" fill="#FFD1E7" stroke="white" stroke-width="0.02"/>
<rect x="41.01" y="78.01" width="9.98" height="9.98" fill="#FFD1E7" stroke="white" stroke-width="0.02"/>
<rect x="51.01" y="78.01" width="9.98" height="9.98" fill="#FFD1E7" stroke="white" stroke-width="0.02"/>
<rect x="61.01" y="78.01" width="9.98" height="9.98" fill="#FFD1E7" stroke="white" stroke-width="0.02"/>
<rect x="71.01" y="78.01" width="9.98" height="9.98" fill="#FFD1E7" stroke="white" stroke-width="0.02"/>
<rect x="81.01" y="78.01" width="9.98" height="9.98" fill="#FFD1E7" stroke="white" stroke-width="0.02"/>
<rect x="31.01" y="28.01" width="9.98" height="9.98" fill="#FFD1E7" stroke="white" stroke-width="0.02"/>
<rect x="41.01" y="28.01" width="9.98" height="9.98" fill="#FFD1E7" stroke="white" stroke-width="0.02"/>
<rect x="51.01" y="28.01" width="9.98" height="9.98" fill="#FFD1E7" stroke="white" stroke-width="0.02"/>
<rect x="61.01" y="28.01" width="9.98" height="9.98" fill="#FFD1E7" stroke="white" stroke-width="0.02"/>
<rect x="71.01" y="28.01" width="9.98" height="9.98" fill="#FFD1E7" stroke="white" stroke-width="0.02"/>
<rect x="81.01" y="28.01" width="9.98" height="9.98" fill="#FFD1E7" stroke="white" stroke-width="0.02"/>
<rect x="81.01" y="36.76" width="9.98" height="9.98" fill="#FFD1E7" stroke="white" stroke-width="0.02"/>
<rect x="81.01" y="45.51" width="9.98" height="9.98" fill="#FFD1E7" stroke="white" stroke-width="0.02"/>
<rect x="81.01" y="54.26" width="9.98" height="9.98" fill="#FFD1E7" stroke="white" stroke-width="0.02"/>
<rect x="81.01" y="63.01" width="9.98" height="9.98" fill="#FFD1E7" stroke="white" stroke-width="0.02"/>
<rect x="81.01" y="71.76" width="9.98" height="9.98" fill="#FFD1E7" stroke="white" stroke-width="0.02"/>
<rect x="31.01" y="18.01" width="9.98" height="9.98" fill="#F59AC6" stroke="white" stroke-width="0.02"/>
<rect x="41.01" y="18.01" width="9.98" height="9.98" fill="#F59AC6" stroke="white" stroke-width="0.02"/>
<rect x="51.01" y="18.01" width="9.98" height="9.98" fill="#F59AC6" stroke="white" stroke-width="0.02"/>
<rect x="61.01" y="18.01" width="9.98" height="9.98" fill="#F59AC6" stroke="white" stroke-width="0.02"/>
<rect x="71.01" y="18.01" width="9.98" height="9.98" fill="#F59AC6" stroke="white" stroke-width="0.02"/>
<rect x="81.01" y="18.01" width="9.98" height="9.98" fill="#F59AC6" stroke="white" stroke-width="0.02"/>
<rect x="91.01" y="18.01" width="9.98" height="9.98" fill="#F59AC6" stroke="white" stroke-width="0.02"/>
<rect x="91.01" y="28.01" width="9.98" height="9.98" fill="#F59AC6" stroke="white" stroke-width="0.02"/>
<rect x="91.01" y="38.01" width="9.98" height="9.98" fill="#F59AC6" stroke="white" stroke-width="0.02"/>
<rect x="91.01" y="48.01" width="9.98" height="9.98" fill="#F59AC6" stroke="white" stroke-width="0.02"/>
<rect x="91.01" y="58.01" width="9.98" height="9.98" fill="#F59AC6" stroke="white" stroke-width="0.02"/>
<rect x="91.01" y="68.01" width="9.98" height="9.98" fill="#F59AC6" stroke="white" stroke-width="0.02"/>
<rect x="91.01" y="78.01" width="9.98" height="9.98" fill="#F59AC6" stroke="white" stroke-width="0.02"/>
<rect x="1.01" y="28.01" width="9.98" height="9.98" fill="#F54F9F" stroke="white" stroke-width="0.02"/>
<rect x="1.01" y="38.01" width="9.98" height="9.98" fill="#F54F9F" stroke="white" stroke-width="0.02"/>
<rect x="1.01" y="48.01" width="9.98" height="9.98" fill="#F54F9F" stroke="white" stroke-width="0.02"/>
<rect x="1.01" y="58.01" width="9.98" height="9.98" fill="#F54F9F" stroke="white" stroke-width="0.02"/>
<rect x="1.01" y="68.01" width="9.98" height="9.98" fill="#F54F9F" stroke="white" stroke-width="0.02"/>
<rect x="1.01" y="78.01" width="9.98" height="9.98" fill="#F54F9F" stroke="white" stroke-width="0.02"/>
<rect x="1.01" y="88.01" width="9.98" height="9.98" fill="#F54F9F" stroke="white" stroke-width="0.02"/>
<rect x="1.01" y="98.01" width="9.98" height="9.98" fill="#F54F9F" stroke="white" stroke-width="0.02"/>
<rect x="11.01" y="98.01" width="9.98" height="9.98" fill="#F54F9F" stroke="white" stroke-width="0.02"/>
<rect x="21.01" y="98.01" width="9.98" height="9.98" fill="#F54F9F" stroke="white" stroke-width="0.02"/>
<rect x="31.01" y="98.01" width="9.98" height="9.98" fill="#F54F9F" stroke="white" stroke-width="0.02"/>
<rect x="41.01" y="98.01" width="9.98" height="9.98" fill="#F54F9F" stroke="white" stroke-width="0.02"/>
<rect x="51.01" y="98.01" width="9.98" height="9.98" fill="#F54F9F" stroke="white" stroke-width="0.02"/>
<rect x="61.01" y="98.01" width="9.98" height="9.98" fill="#F54F9F" stroke="white" stroke-width="0.02"/>
<rect x="71.01" y="98.01" width="9.98" height="9.98" fill="#F54F9F" stroke="white" stroke-width="0.02"/>
<rect x="81.01" y="98.01" width="9.98" height="9.98" fill="#F54F9F" stroke="white" stroke-width="0.02"/>
<rect x="91.01" y="98.01" width="9.98" height="9.98" fill="#F54F9F" stroke="white" stroke-width="0.02"/>
<rect x="11.01" y="8.01" width="9.98" height="9.98" fill="#F54F9F" stroke="white" stroke-width="0.02"/>
<rect x="21.01" y="8.01" width="9.98" height="9.98" fill="#F54F9F" stroke="white" stroke-width="0.02"/>
<rect x="31.01" y="8.01" width="9.98" height="9.98" fill="#F54F9F" stroke="white" stroke-width="0.02"/>
<rect x="41.01" y="8.01" width="9.98" height="9.98" fill="#F54F9F" stroke="white" stroke-width="0.02"/>
<rect x="51.01" y="8.01" width="9.98" height="9.98" fill="#F54F9F" stroke="white" stroke-width="0.02"/>
<rect x="61.01" y="8.01" width="9.98" height="9.98" fill="#F54F9F" stroke="white" stroke-width="0.02"/>
<rect x="71.01" y="8.01" width="9.98" height="9.98" fill="#F54F9F" stroke="white" stroke-width="0.02"/>
<rect x="81.01" y="8.01" width="9.98" height="9.98" fill="#F54F9F" stroke="white" stroke-width="0.02"/>
<rect x="91.01" y="8.01" width="9.98" height="9.98" fill="#F54F9F" stroke="white" stroke-width="0.02"/>
<rect x="101.01" y="8.01" width="9.98" height="9.98" fill="#F54F9F" stroke="white" stroke-width="0.02"/>
<rect x="101.01" y="18.01" width="9.98" height="9.98" fill="#F54F9F" stroke="white" stroke-width="0.02"/>
<rect x="101.01" y="28.01" width="9.98" height="9.98" fill="#F54F9F" stroke="white" stroke-width="0.02"/>
<rect x="101.01" y="38.01" width="9.98" height="9.98" fill="#F54F9F" stroke="white" stroke-width="0.02"/>
<rect x="101.01" y="48.01" width="9.98" height="9.98" fill="#F54F9F" stroke="white" stroke-width="0.02"/>
<rect x="101.01" y="58.01" width="9.98" height="9.98" fill="#F54F9F" stroke="white" stroke-width="0.02"/>
<rect x="101.01" y="68.01" width="9.98" height="9.98" fill="#F54F9F" stroke="white" stroke-width="0.02"/>
<rect x="101.01" y="78.01" width="9.98" height="9.98" fill="#F54F9F" stroke="white" stroke-width="0.02"/>
<rect x="101.01" y="88.01" width="9.98" height="9.98" fill="#F54F9F" stroke="white" stroke-width="0.02"/>
<rect x="101.01" y="98.01" width="9.98" height="9.98" fill="#F54F9F" stroke="white" stroke-width="0.02"/>
</g>
<defs>
<filter id="filter0_dd_228_461" x="0" y="0" width="119" height="110" filterUnits="userSpaceOnUse" color-interpolation-filters="sRGB">
<feFlood flood-opacity="0" result="BackgroundImageFix"/>
<feColorMatrix in="SourceAlpha" type="matrix" values="0 0 0 0 0 0 0 0 0 0 0 0 0 0 0 0 0 0 127 0" result="hardAlpha"/>
<feOffset dx="8" dy="-8"/>
<feComposite in2="hardAlpha" operator="out"/>
<feColorMatrix type="matrix" values="0 0 0 0 1 0 0 0 0 1 0 0 0 0 1 0 0 0 1 0"/>
<feBlend mode="normal" in2="BackgroundImageFix" result="effect1_dropShadow_228_461"/>
<feColorMatrix in="SourceAlpha" type="matrix" values="0 0 0 0 0 0 0 0 0 0 0 0 0 0 0 0 0 0 127 0" result="hardAlpha"/>
<feOffset dy="1"/>
<feGaussianBlur stdDeviation="0.5"/>
<feComposite in2="hardAlpha" operator="out"/>
<feColorMatrix type="matrix" values="0 0 0 0 0.0666667 0 0 0 0 0.0666667 0 0 0 0 0.0666667 0 0 0 0.5 0"/>
<feBlend mode="normal" in2="effect1_dropShadow_228_461" result="effect2_dropShadow_228_461"/>
<feBlend mode="normal" in="SourceGraphic" in2="effect2_dropShadow_228_461" result="shape"/>
</filter>
</defs>
</svg>
