<svg width="749" height="720" viewBox="0 0 749 720" fill="none" xmlns="http://www.w3.org/2000/svg">
<path d="M221.403 209.047C223.503 210.36 221.403 172.585 221.403 166.936C221.403 147.976 225.779 122.327 235.848 105.936C245.714 89.8752 258.492 69.5076 274.292 59.6029C284.212 53.3842 295.65 49.4705 304.625 41.8251C311.994 35.5486 319.445 31.3124 328.514 28.0473C344.568 22.268 362.943 24.8892 379.625 20.1585C406.4 12.5656 426.972 8.32777 454.848 11.0473C463.788 11.9195 473.447 11.9687 481.848 15.4918C494.399 20.7554 508.747 22.9351 520.737 29.0473C534.216 35.9191 540.112 48.4763 549.848 59.6029C552.878 63.0665 558.892 72.6199 560.959 76.8251C563.026 81.0304 577.34 98.3045 580.292 105.936C590.829 133.172 593.403 152.606 593.403 182.047C593.403 191.993 595.403 201.373 595.403 211.047C595.403 219.1 594.707 226.378 593.292 234.158C591.878 241.938 592.053 239.642 600.514 239.158C613.388 238.423 626.56 241.426 638.514 246.158C650.514 250.908 666.689 264.101 675.181 273.492C687.288 286.88 703.738 294.402 711.625 311.492C719.222 327.95 726.769 347.294 728.403 365.27C744.848 381.381 735.403 414.369 735.403 432.603C735.403 457.624 728.403 472.047 719.07 498.603C717.282 519.76 698.429 537.835 685.07 552.936C669.616 570.406 649.226 575.731 627.514 581.158C611.144 585.251 597.193 589.047 580.292 589.047C572.173 589.047 565.068 585.431 557.403 585.047C554.043 584.879 550.748 597.811 549.848 600.603C548.573 604.555 549.54 608.956 548.403 613.047C545.978 621.777 541.336 628.467 536.959 636.492C529.34 650.459 524.244 657.576 515.403 670.27C509.343 678.972 498.338 688.427 488.07 693.047C472.205 700.187 454.39 703.774 437.625 708.158C427.754 710.74 407.31 709.235 397.403 708.158C371.737 710.603 351.403 708.158 327.403 699.047C308.677 695.091 297.965 680.837 282.625 670.27C273.428 663.934 263.516 659.143 257.403 649.492C251.983 640.934 244.561 633.094 237.403 625.936C220.557 609.09 218.396 576.802 214.292 553.936C211.683 539.398 209.403 523.708 209.403 508.936C209.403 505.687 210.797 501.149 206.514 501.047C189.987 500.654 172.764 499.952 156.292 501.492C140.677 502.951 127.939 508.709 111.848 504.825C98.0036 501.483 82.7543 494.901 71.6255 485.936C63.0492 479.028 59.7099 478.141 50.2922 472.047C37.6008 463.835 25.7604 447.196 19.8477 432.603C11.3123 411.537 10.228 387.561 11.181 365.27C12.8291 326.723 12.7676 287.997 37.8477 257.047C42.3683 251.469 45.2535 242.183 50.2922 237.603C61.2593 227.633 76.3189 216.947 89.7366 210.492C122.022 194.958 134.665 190.047 170.403 190.047C177.639 190.047 204.319 194.246 209.403 199.047C214.06 203.445 221.239 204.555 223.403 211.047" stroke="white" stroke-width="20" stroke-linecap="round"/>
<ellipse cx="374.499" cy="359.903" rx="133.052" ry="114" fill="white"/>
</svg>
