<svg width="2763" height="2701" viewBox="0 0 2763 2701" fill="none" xmlns="http://www.w3.org/2000/svg">
  <g filter="url(#filter0_d_307_311)">
    <path d="M1361.04 2633C1361.04 2557.16 1361.04 2444.01 1361.04 2368.17C1361.04 2285.38 1323.59 2229.62 1292.07 2165.94C1239.33 2059.38 1083.44 2050.72 1004.14 2086.94C925.553 2122.83 831.017 2155.67 758.899 2209.39C640.615 2297.49 509.807 2200.97 393.232 2169.1C310.276 2146.41 225.474 2121.33 162.775 2030.85C102.777 1944.27 38.226 1855.61 31.3974 1727.5C26.9437 1643.95 19.3682 1563.27 20.9967 1478.66C22.5122 1399.93 120.91 1301.67 169.344 1286.7C197.939 1277.85 223.653 1253.06 252.002 1245.62C266.428 1241.83 285 1238.51 267.329 1238.51C238.748 1153.44 183.943 1078.62 163.87 990.457C136.471 870.121 129.383 735.116 129.383 608.9C129.383 585.988 124.785 550.845 133.762 530.692C191.494 401.092 300.152 298.837 404.18 291.331C469.895 286.589 534.042 277.901 600.152 277.901C638.305 277.901 679.086 272.273 716.201 287.381C744.789 299.017 822.382 333.154 836.631 374.278C868.007 464.836 1069.51 217.132 1121.28 187.054C1204.21 138.87 1289.45 124.509 1376.92 106.477C1443.04 92.8464 1505.25 60.5772 1573.44 53.5485C1632.88 47.4209 1685.9 68.0462 1743.13 86.7274C1861.6 125.398 1931.26 275.757 2021.76 383.757C2058.9 428.073 2107.4 375.435 2143.83 349.789C2192.77 315.342 2245.21 299.854 2297.11 277.901C2463.08 207.697 2707.98 436.173 2710.95 693.427C2711.68 756.683 2705.41 874.034 2662.23 909.09C2620.47 942.983 2567.53 950.169 2523.73 981.767C2505.41 994.988 2488.92 1020.07 2470.09 1029.96C2459.77 1035.37 2553.83 1089.9 2571.91 1108.95C2652.11 1193.51 2745.95 1435.46 2684.12 1574.25C2609.09 1742.68 2523.73 1871 2391 1919C2349.37 1926.51 2284.71 1953.9 2241 1971C2143.83 2009 2199 1985 2143.83 2009C2030.89 2058.14 1992 2033.94 1897 2086.94C1846 2128.88 1790.62 2195.38 1741 2247C1703.75 2285.75 1701 2261.83 1641 2335C1610.14 2354.79 1585 2368.17 1504.47 2441.64C1471.17 2478.25 1451.73 2539.87 1420.16 2578.3C1404.63 2597.22 1367.09 2654.81 1361.04 2681" 
      stroke="white" 
      stroke-width="40" 
      stroke-linecap="round" 
      fill="#FF5733" 
  </g>
  <defs>
    <filter id="filter0_d_307_311" x="0.772583" y="0.459961" width="2762.23" height="2700.54" filterUnits="userSpaceOnUse" color-interpolation-filters="sRGB">
      <feFlood flood-opacity="0" result="BackgroundImageFix"/>
      <feColorMatrix in="SourceAlpha" type="matrix" values="0 0 0 0 0 0 0 0 0 0 0 0 0 0 0 0 0 0 127 0" result="hardAlpha"/>
      <feOffset dx="32" dy="-32"/>
      <feComposite in2="hardAlpha" operator="out"/>
      <feColorMatrix type="matrix" values="0 0 0 0 0.988235 0 0 0 0 0.717647 0 0 0 0 0.027451 0 0 0 1 0"/>
      <feBlend mode="normal" in2="BackgroundImageFix" result="effect1_dropShadow_307_311"/>
      <feBlend mode="normal" in="SourceGraphic" in2="effect1_dropShadow_307_311" result="shape"/>
    </filter>
  </defs>
</svg>
