<svg width="440" height="113" viewBox="0 0 440 113" fill="none" xmlns="http://www.w3.org/2000/svg">
<path d="M0.888885 33C1.25458 39.2169 9.70107 43.1109 14.4074 45.7778C17.6309 47.6044 20.3927 49.3361 24.0988 50.1914C27.0112 50.8635 29.8372 50.632 32.8025 51.0556C36.2455 51.5474 39.825 51.3767 43.2963 51.3334C50.7204 51.2406 57.0965 47.0542 63.5432 44.1111C67.0608 42.5053 69.9357 38.3234 73.0185 35.9013C75.4342 34.0032 78.277 32.1777 80.858 30.5C83.2215 28.9638 86.0322 25.7549 88.5 24.2037C93.2443 21.2216 94.9799 18.0409 100 15.5309C102.747 10.9507 110.755 6.90862 117.5 5.22226C129.075 2.3285 139.303 2.08276 151.077 5.22226C153.667 5.91296 162.089 8.16793 164.469 9.35805C169.628 11.9373 173.423 16.1511 177.401 20.1296C180.991 23.7194 184.183 27.6209 188.543 30.3457C192.895 33.0656 197.222 35.7857 201.506 38.6173C204.743 40.7572 207.847 40.9977 211.568 42.0124C213.631 42.5751 215.708 42.4445 217.833 42.4445C220.17 42.4445 222.505 42.4431 224.84 42.321C227.999 42.1558 233.286 42.8673 236.136 41.2716C238.219 40.1052 239.742 38.1128 241.846 36.8889C244.857 35.1368 247.764 33.3508 251.074 32.321C255.099 31.0688 255.912 27.209 258.481 24.2037C261.183 21.0439 264.454 19.0612 266.691 15.5309C270.006 10.301 287.58 4.23438 293.163 3.43679C303.192 2.00401 308.502 0.399698 318.663 3.43678C328.823 6.47385 321.1 4.57134 324.16 5.03706C326.735 5.4288 332 8.03504 334.219 9.35805C338.144 11.6979 342.784 13.7136 347 15.5309C347 15.5309 350.87 17.4931 353.358 21.0247C353.944 21.856 355.392 22.0372 356.228 22.4136C359.164 23.7344 361.907 25.4828 364.407 27.5062C366.835 29.4706 371.537 33.8334 371.537 33.8334C374.373 35.5523 378.135 35.9817 381.29 36.858C389.058 39.0158 385.567 39.429 393.5 40.2222C398.846 40.7569 408.011 41.4702 413.315 40.2222C416.129 39.5602 427.049 35.3963 428.42 33.1235C430.102 30.3348 432.512 28.1625 434.16 25.3148C434.901 24.0351 435.482 22.2956 436.444 21.3333" stroke="black" stroke-width="3" stroke-linecap="round"/>
<path d="M2 63C6.38427 63.822 9.78717 66.9244 13.6667 68.8642C17.3833 70.7225 21.3236 70.2222 25.3642 70.2222C30.4573 70.2222 35.9981 70.3547 40.8889 68.8642C45.3089 67.5171 49.7734 66.798 54.0988 65.0988C59.2551 63.073 63.8734 59.7587 68.6049 56.9197C70.9389 55.5194 73.2281 54.5286 75.7654 53.6173C82.1278 51.3322 88.5796 48.433 95.2716 47.2284C104.108 45.6379 114.256 45.973 123.235 45.7778C133.668 45.551 145.059 47.768 153.852 53.5556C160.377 57.8509 167.897 59.0753 174.654 62.8765C182.253 67.1507 190.794 69.8309 199.346 71.3333C204.788 72.2894 210.172 73.5556 215.704 73.5556C221.65 73.5556 227.165 73.5556 233.111 73.5556C237.837 73.5556 246.617 75.0691 251.167 72.6605C260 72.6605 266.595 67.2153 273.852 63.2469C278.864 60.5057 282.624 56.4089 287.926 53.9568C291.399 52.3504 295.024 50.7416 298.358 48.8642C302.555 46.5014 306.562 43.6179 311.506 43.1235C314.797 42.7944 324.222 41.8187 327.395 42C334.799 42.4231 336.086 42.5297 343.173 45.3457C349.889 48.0142 349.679 48.0405 357 48.8642C360.487 49.2565 366.019 51.5587 369.5 52C376.537 53.821 375.607 55.0144 378 55.5C381.018 56.1124 388.721 60.1879 391.75 60.75C397.14 61.7503 400.015 62.323 405.5 62.75C412.626 63.3047 420.542 60.0424 427.679 59.358C431.122 59.0278 436.906 58.8032 439.778 56.8889" stroke="black" stroke-width="3" stroke-linecap="round"/>
<path d="M0 99.4987C4.38427 100.321 7.78717 103.423 11.6667 105.363C15.3833 107.221 19.3236 106.721 23.3642 106.721C28.4573 106.721 33.9981 106.853 38.8889 105.363C43.3089 104.016 47.7734 103.297 52.0988 101.597C57.2551 99.5717 61.8734 96.2573 66.6049 93.4184C68.9389 92.018 71.2281 91.0272 73.7654 90.1159C80.1278 87.8308 86.5796 84.9316 93.2716 83.727C102.108 82.1365 112.256 82.4716 121.235 82.2764C131.668 82.0496 143.059 84.2666 151.852 90.0542C158.377 94.3495 165.897 95.574 172.654 99.3752C180.253 103.649 188.794 106.33 197.346 107.832C202.788 108.788 208.172 110.054 213.704 110.054C219.65 110.054 225.165 110.054 231.111 110.054C235.837 110.054 244.617 111.568 249.167 109.159C258 109.159 264.595 103.714 271.852 99.7456C276.864 97.0044 280.624 92.9075 285.926 90.4554C289.399 88.849 293.024 87.2402 296.358 85.3628C300.555 83.0001 304.562 80.1165 309.506 79.6221C312.797 79.293 322.222 78.3173 325.395 78.4986C332.799 78.9217 334.086 79.0283 341.173 81.8443C347.889 84.5128 347.679 84.5392 355 85.3628C358.487 85.7552 364.019 88.0574 367.5 88.4987C374.537 90.3196 373.607 91.513 376 91.9987C379.018 92.611 386.721 96.6866 389.75 97.2487C395.14 98.2489 398.015 98.8217 403.5 99.2487C410.626 99.8034 418.542 96.5411 425.679 95.8567C429.122 95.5265 434.906 95.3019 437.778 93.3875" stroke="black" stroke-width="3" stroke-linecap="round"/>
</svg>
